<svg id="test" width="20" height="62" viewBox="0 0 20 62"
    xmlns="http://www.w3.org/2000/svg">
    <path fill-rule="evenodd" clip-rule="evenodd" d="M13.0651 59.5706C22.9807 40.1892 19.5753 13.8463 13.065 2.0796C11.5866 -0.365055 8.07201 -0.223415 6.6907 2.0796C-0.0159863 13.2614 -2.5167 40.0803 6.69071 59.5706C7.87521 62.078 11.5681 62.1067 13.0651 59.5706ZM5.08662 23.8431C7.28296 17.0344 12.8016 17.2448 14.7933 23.8431C13.7486 25.5186 14.5551 27.4878 15.7205 28.2459C16.3131 31.8708 15.9768 35.613 15.5608 36.9543C14.0102 41.1613 5.86847 41.1823 4.45525 36.9543C3.94991 35.4424 3.56685 31.8708 4.15942 28.2459C5.91471 26.7104 5.8463 24.7962 5.08662 23.8431Z" fill="#4f5d75"/>
</svg>
