<svg viewBox="0 0 1600 900" fill="none" preserveAspectRatio="none"
  xmlns="http://www.w3.org/2000/svg">
  <g clip-path="url(#clip0)">
    <rect y="900" width="900" height="1600" transform="rotate(-90 0 900)" fill="#fb9486" />
    <rect y="900" width="900" height="1600" transform="rotate(-90 0 900)" fill="url(#paint0_linear)" />
    <path d="M1563.51 470.769L1836.69 966.973H1290.32L1563.51 470.769Z" fill="#C4C4C4" />
    <path d="M1148.4 470.769L1421.58 966.973H875.215L1148.4 470.769Z" fill="#C4C4C4" />
    <path d="M189.37 386.4L476.98 864.44H-98.2391L189.37 386.4Z" fill="#C4C4C4" />
    <path d="M344.155 515.016L631.764 993.056H56.5453L344.155 515.016Z" fill="#C4C4C4" />
    <path d="M-26.3845 536.943L259.88 1031.91H-312.649L-26.3845 536.943Z" fill="#ACACAC" />
    <path d="M527.837 515.016L799.528 1009.99H256.147L527.837 515.016Z" fill="#ACACAC" />
    <path d="M234.98 673.153L521.244 893.519H-51.2846L234.98 673.153Z" fill="#ACACAC" />
    <path d="M1291.46 639.458L1675.06 1084.23H907.857L1291.46 639.458Z" fill="#ACACAC" />
    <path d="M1020.48 572.578L1248.87 1067.55H792.084L1020.48 572.578Z" fill="#ACACAC" />
    <path d="M428.932 574.286L749.969 911.411H107.894L428.932 574.286Z" fill="#808080" />
    <path d="M1416 557.015L1649.69 988.988H1182.31L1416 557.015Z" fill="#808080" />
    <path d="M1096.76 684.61L1350.53 925.189H842.996L1096.76 684.61Z" fill="#808080" />
    <path d="M113.636 673.151L279.804 919.137H-52.5323L113.636 673.151Z" fill="#808080" />
  </g>
  <defs>
    <linearGradient id="paint0_linear" x1="900" y1="1700" x2="3.59284e-05" y2="1700" gradientUnits="userSpaceOnUse">
      <stop stop-color="#ffc7b9" />
    </linearGradient>
  </defs>
</svg>