<svg width="1600" height="900" viewBox="0 0 1600 900" fill="none" xmlns="http://www.w3.org/2000/svg">
<g style="mix-blend-mode:darken">
<g clip-path="url(#clip0)">
<rect width="1600" height="900" fill="white"/>
<rect width="1600" height="900" fill="#4EB058"/>
<rect width="1600" height="900" fill="url(#paint0_linear)"/>
<path d="M1428.75 305.068C1406.41 290.913 1404.42 297.778 1354.98 330.841C1371.51 355.562 1413.45 398.877 1448.96 374.368C1493.34 343.732 1451.1 319.223 1428.75 305.068Z" fill="#C4C4C4"/>
<path d="M1416.29 334.188C1383.73 313.56 1380.83 323.564 1308.78 371.745C1332.87 407.77 1393.98 470.891 1445.73 435.175C1510.41 390.531 1448.85 354.815 1416.29 334.188Z" fill="#ACACAC"/>
<path d="M1418.93 269.798C1393.72 348.478 1341.34 388.618 1178.18 336.869C1016.51 285.591 1223.86 117.812 1318.14 141.061C1418.93 176.731 1439.09 206.854 1418.93 269.798Z" fill="#5B502D"/>
<path d="M1053.96 179.978C1049.07 191.005 1047.52 194.492 1049.9 231.939C1083.98 234.358 1157.85 235.809 1180.67 222.266C1209.2 205.338 1185.43 194.455 1180.67 179.945C1175.92 165.435 1164.03 156.971 1121.23 156.971C1078.43 156.971 1060.86 164.439 1053.98 179.945L1053.96 179.978Z" fill="#ACACAC"/>
<path d="M135.521 150.14C39.5367 150.14 106.138 157.757 -0.511597 150.14V665.105C59.9231 659.518 196.464 648.346 257.407 648.346C333.585 648.346 504.224 671.199 539.266 687.958C574.308 704.718 655.057 723 671.817 747.377C688.576 771.754 758.66 832.697 758.66 858.598V898.465H1599.49V249.171C1555.88 238.145 1454.83 249.318 1458.19 307.065C1460.97 354.79 1455.87 421.921 1409.22 418.287C1391.13 416.878 1365.87 418.287 1343.67 391.713C1323.19 367.204 1409.22 279.321 1409.22 249.171C1409.22 195.723 1369.43 187.545 1322.64 177.93L1320.86 177.564C1271.67 167.447 1272.51 158.656 1221.82 177.564C1204.28 184.109 1214.21 185.129 1191.36 206.459C1168.5 227.789 1152.45 221.695 1134.17 206.459C1126.42 200.002 1127.36 201.941 1080.13 203.464C1032.9 204.988 1044.16 239.329 1040.52 249.171C1035.47 262.839 1031.38 270.501 997.86 270.501C964.341 270.501 973.483 238.506 939.964 240.03C906.446 241.554 914.063 296.402 848.55 302.496C783.037 308.59 684.005 291.831 600.209 249.171C516.413 206.512 511.842 208.035 441.758 160.805C371.674 113.574 231.506 150.14 135.521 150.14Z" fill="#63B3FF"/>
<path d="M135.521 150.14C39.5367 150.14 106.138 157.757 -0.511597 150.14V665.105C59.9231 659.518 196.464 648.346 257.407 648.346C333.585 648.346 504.224 671.199 539.266 687.958C574.308 704.718 655.057 723 671.817 747.377C688.576 771.754 758.66 832.697 758.66 858.598V898.465H1599.49V249.171C1555.88 238.145 1454.83 249.318 1458.19 307.065C1460.97 354.79 1455.87 421.921 1409.22 418.287C1391.13 416.878 1365.87 418.287 1343.67 391.713C1323.19 367.204 1409.22 279.321 1409.22 249.171C1409.22 195.723 1369.43 187.545 1322.64 177.93L1320.86 177.564C1271.67 167.447 1272.51 158.656 1221.82 177.564C1204.28 184.109 1214.21 185.129 1191.36 206.459C1168.5 227.789 1152.45 221.695 1134.17 206.459C1126.42 200.002 1127.36 201.941 1080.13 203.464C1032.9 204.988 1044.16 239.329 1040.52 249.171C1035.47 262.839 1031.38 270.501 997.86 270.501C964.341 270.501 973.483 238.506 939.964 240.03C906.446 241.554 914.063 296.402 848.55 302.496C783.037 308.59 684.005 291.831 600.209 249.171C516.413 206.512 511.842 208.035 441.758 160.805C371.674 113.574 231.506 150.14 135.521 150.14Z" fill="url(#paint1_linear)"/>
<rect x="844.237" y="344.326" width="13.4374" height="44.0365" rx="6.7187" transform="rotate(1.59718 844.237 344.326)" fill="white"/>
<mask id="mask0" mask-type="alpha" maskUnits="userSpaceOnUse" x="654" y="589" width="114" height="119">
<path d="M748.889 619.855C750.869 608.123 735.671 591.18 716.681 596.197C705.603 599.123 670.559 671.539 674.219 685.395C677.83 699.063 713.366 702.538 720.603 695.753C727.517 689.27 740.025 690.718 737.148 677.05C734.326 663.646 746.91 631.588 748.889 619.855Z" fill="#4EB058"/>
<path d="M748.889 619.855C750.869 608.123 735.671 591.18 716.681 596.197C705.603 599.123 670.559 671.539 674.219 685.395C677.83 699.063 713.366 702.538 720.603 695.753C727.517 689.27 740.025 690.718 737.148 677.05C734.326 663.646 746.91 631.588 748.889 619.855Z" fill="url(#paint2_linear)"/>
</mask>
<g mask="url(#mask0)">
<path d="M710.151 586.964C685.68 600.362 701.367 606.983 728.704 645.298C755.689 683.12 745.254 625.263 764.758 612.928C754.712 599.808 729.727 576.247 710.151 586.964Z" fill="#808080"/>
<path d="M690.006 623.12C644.01 658.792 667.231 668.401 696.663 742.323C725.716 815.295 732.292 694.763 769.634 662.794C758.423 637.679 726.802 594.582 690.006 623.12Z" fill="#C4C4C4"/>
<path d="M698.336 591.026C680.948 594.334 692.885 604.463 715.075 643.681C736.98 682.394 747.237 656.218 761.01 652.248C774.467 645.426 712.247 588.38 698.336 591.026Z" fill="#ACACAC"/>
<path d="M700.943 606.476C687.508 599.357 696.54 612.381 713.018 649.968C729.283 687.072 721.802 648.679 732.464 653.431C726.435 640.152 711.691 612.171 700.943 606.476Z" fill="#808080"/>
</g>
<mask id="mask1" mask-type="alpha" maskUnits="userSpaceOnUse" x="729" y="403" width="94" height="102">
<path d="M747.504 451.784C740.186 456.451 730.456 476.144 740.438 483.533C746.26 487.844 796.05 468.582 802.428 459.967C808.72 451.469 807.236 418.087 800.702 417.635C794.46 417.204 790.541 421.993 783.972 430.112C777.531 438.074 754.823 447.116 747.504 451.784Z" fill="#4EB058"/>
<path d="M747.504 451.784C740.186 456.451 730.456 476.144 740.438 483.533C746.26 487.844 796.05 468.582 802.428 459.967C808.72 451.469 807.236 418.087 800.702 417.635C794.46 417.204 790.541 421.993 783.972 430.112C777.531 438.074 754.823 447.116 747.504 451.784Z" fill="url(#paint3_linear)"/>
</mask>
<g mask="url(#mask1)">
<path d="M771.571 480.66C808.922 487.148 805.534 470.475 835.821 419.39C865.718 368.962 795.727 424.031 763.719 420.223C753.886 438.206 741.691 475.47 771.571 480.66Z" fill="#C4C4C4"/>
<path d="M735.655 481.262C751.743 496.824 755.483 485.785 786.742 464.678C817.599 443.842 765.721 454.919 751.368 442.632C740.767 450.321 722.784 468.812 735.655 481.262Z" fill="#808080"/>
<path d="M735.587 494.51C750.178 500.825 751.285 489.746 771.629 458.065C791.711 426.79 761.374 436.24 748.605 431.973C733.49 429.403 723.915 489.458 735.587 494.51Z" fill="#ACACAC"/>
</g>
</g>
</g>
<defs>
<linearGradient id="paint0_linear" x1="103.314" y1="189.709" x2="1160.98" y2="488.221" gradientUnits="userSpaceOnUse">
<stop stop-color="white" stop-opacity="0"/>
<stop offset="0.637213" stop-color="#515151" stop-opacity="0.0929688"/>
<stop offset="1" stop-opacity="0.04"/>
</linearGradient>
<linearGradient id="paint1_linear" x1="85.1255" y1="337.688" x2="1206.64" y2="539.754" gradientUnits="userSpaceOnUse">
<stop stop-color="white" stop-opacity="0"/>
<stop offset="1" stop-color="white" stop-opacity="0.49"/>
</linearGradient>
<linearGradient id="paint2_linear" x1="725.366" y1="600.466" x2="731.363" y2="669.313" gradientUnits="userSpaceOnUse">
<stop stop-color="white" stop-opacity="0"/>
<stop offset="0.637213" stop-color="#515151" stop-opacity="0.0929688"/>
<stop offset="1" stop-opacity="0.04"/>
</linearGradient>
<linearGradient id="paint3_linear" x1="740.903" y1="476.715" x2="789.349" y2="439.285" gradientUnits="userSpaceOnUse">
<stop stop-color="white" stop-opacity="0"/>
<stop offset="0.637213" stop-color="#515151" stop-opacity="0.0929688"/>
<stop offset="1" stop-opacity="0.04"/>
</linearGradient>
<clipPath id="clip0">
<rect width="1600" height="900" fill="white"/>
</clipPath>
</defs>
</svg>
