<svg width="1600" height="900" viewBox="0 0 1600 900" fill="none" xmlns="http://www.w3.org/2000/svg">
<g style="mix-blend-mode:darken">
<rect width="1600" height="900" fill="white"/>
<rect width="1600" height="900" fill="#4EB058"/>
<rect width="1600" height="900" fill="url(#paint0_linear)"/>
<path d="M1106.61 0H1600V900H1045.72C1026.12 858.703 1029.12 736.437 1007.28 630.605C979.983 498.316 1019.88 368.126 1034.58 248.436C1046.34 152.684 1071.61 37.797 1106.61 0Z" fill="#63B3FF"/>
<path d="M1106.61 0H1600V900H1045.72C1026.12 858.703 1029.12 736.437 1007.28 630.605C979.983 498.316 1019.88 368.126 1034.58 248.436C1046.34 152.684 1071.61 37.797 1106.61 0Z" fill="url(#paint1_linear)"/>
</g>
<defs>
<linearGradient id="paint0_linear" x1="103.314" y1="189.709" x2="1160.98" y2="488.221" gradientUnits="userSpaceOnUse">
<stop stop-color="white" stop-opacity="0"/>
<stop offset="0.637213" stop-color="#515151" stop-opacity="0.0929688"/>
<stop offset="1" stop-opacity="0.04"/>
</linearGradient>
<linearGradient id="paint1_linear" x1="1030.18" y1="237.512" x2="1464.45" y2="262.433" gradientUnits="userSpaceOnUse">
<stop stop-color="white" stop-opacity="0"/>
<stop offset="1" stop-color="white" stop-opacity="0.49"/>
</linearGradient>
</defs>
</svg>
