<svg width="291" height="291" viewBox="0 0 291 291" fill="none" xmlns="http://www.w3.org/2000/svg">
<path d="M156.267 34.2217L247.109 191.564C251.727 199.564 245.954 209.564 236.716 209.564H55.0328C45.7952 209.564 40.0217 199.564 44.6405 191.564L135.482 34.2217C140.101 26.2217 151.648 26.2217 156.267 34.2217Z" fill="#FFF500" stroke="black" stroke-width="16"/>
<path d="M144.762 155.668C142.682 155.668 140.906 154.974 139.432 153.588C137.959 152.114 137.179 150.338 137.092 148.258L135.142 96.7778C135.056 94.7845 135.706 93.0511 137.092 91.5778C138.479 90.1045 140.169 89.3678 142.162 89.3678H149.182C151.176 89.3678 152.866 90.1045 154.252 91.5778C155.639 93.0511 156.289 94.7845 156.202 96.7778L154.252 148.258C154.166 150.338 153.386 152.114 151.912 153.588C150.439 154.974 148.662 155.668 146.582 155.668H144.762ZM147.882 166.068C149.876 166.068 151.566 166.804 152.952 168.278C154.426 169.751 155.162 171.484 155.162 173.478V176.858C155.162 178.851 154.426 180.584 152.952 182.058C151.566 183.531 149.876 184.268 147.882 184.268H143.462C141.469 184.268 139.736 183.531 138.262 182.058C136.876 180.584 136.182 178.851 136.182 176.858V173.478C136.182 171.484 136.876 169.751 138.262 168.278C139.736 166.804 141.469 166.068 143.462 166.068H147.882Z" fill="black"/>
</svg>
