<svg width="1600" height="900" viewBox="0 0 1600 900" fill="none" xmlns="http://www.w3.org/2000/svg">
<g style="mix-blend-mode:darken">
<g clip-path="url(#clip0)">
<rect width="1600" height="900" fill="white"/>
<rect width="1600" height="900" fill="#4EB058"/>
<rect width="1600" height="900" fill="url(#paint0_linear)"/>
<path d="M0 769.512V173.06C81.6797 218.648 51.2873 209.151 119.67 250.94C188.053 292.73 207.048 323.122 292.527 319.323C378.006 315.524 425.494 311.725 497.676 281.333C569.858 250.94 588.854 237.644 640.141 250.94C691.428 264.237 676.232 281.333 727.519 281.333C778.806 281.333 801.601 288.931 841.491 269.936C881.381 250.94 887.079 220.548 949.764 250.94C1012.45 281.333 1025.74 304.127 1071.33 319.323C1116.92 334.52 1291.68 419.998 1360.06 454.19C1414.77 481.543 1544.91 537.769 1600 562.463V900H1170.11C1139.72 870.874 1094.57 833.945 1056.14 803.703C1039.12 790.309 999.152 722.023 983.955 704.928C968.759 687.832 934.447 676.783 896.456 676.783C858.465 676.783 814.897 704.928 794.003 704.928C773.108 704.928 760.988 670.736 731.318 670.736C676.599 670.736 697.127 682.133 651.538 704.928C605.949 727.722 598.351 708.727 573.657 682.133C548.964 655.54 516.672 638.444 488.179 682.133C459.686 725.823 406.499 727.722 362.81 722.023C319.121 716.325 214.647 718.224 153.862 742.918C93.0769 767.612 104.474 761.914 0 769.512Z" fill="#63B3FF"/>
<path d="M0 769.512V173.06C81.6797 218.648 51.2873 209.151 119.67 250.94C188.053 292.73 207.048 323.122 292.527 319.323C378.006 315.524 425.494 311.725 497.676 281.333C569.858 250.94 588.854 237.644 640.141 250.94C691.428 264.237 676.232 281.333 727.519 281.333C778.806 281.333 801.601 288.931 841.491 269.936C881.381 250.94 887.079 220.548 949.764 250.94C1012.45 281.333 1025.74 304.127 1071.33 319.323C1116.92 334.52 1291.68 419.998 1360.06 454.19C1414.77 481.543 1544.91 537.769 1600 562.463V900H1170.11C1139.72 870.874 1094.57 833.945 1056.14 803.703C1039.12 790.309 999.152 722.023 983.955 704.928C968.759 687.832 934.447 676.783 896.456 676.783C858.465 676.783 814.897 704.928 794.003 704.928C773.108 704.928 760.988 670.736 731.318 670.736C676.599 670.736 697.127 682.133 651.538 704.928C605.949 727.722 598.351 708.727 573.657 682.133C548.964 655.54 516.672 638.444 488.179 682.133C459.686 725.823 406.499 727.722 362.81 722.023C319.121 716.325 214.647 718.224 153.862 742.918C93.0769 767.612 104.474 761.914 0 769.512Z" fill="url(#paint1_linear)"/>
</g>
</g>
<defs>
<linearGradient id="paint0_linear" x1="103.314" y1="189.709" x2="1160.98" y2="488.221" gradientUnits="userSpaceOnUse">
<stop stop-color="white" stop-opacity="0"/>
<stop offset="0.637213" stop-color="#515151" stop-opacity="0.0929688"/>
<stop offset="1" stop-opacity="0.04"/>
</linearGradient>
<linearGradient id="paint1_linear" x1="85.6371" y1="364.901" x2="1203.7" y2="576.012" gradientUnits="userSpaceOnUse">
<stop stop-color="white" stop-opacity="0"/>
<stop offset="1" stop-color="white" stop-opacity="0.49"/>
</linearGradient>
<clipPath id="clip0">
<rect width="1600" height="900" fill="white"/>
</clipPath>
</defs>
</svg>
