<svg width="1600" height="900" viewBox="0 0 1600 900" fill="none" xmlns="http://www.w3.org/2000/svg">
<g style="mix-blend-mode:darken">
<g clip-path="url(#clip0)">
<rect width="1600" height="900" fill="white"/>
<rect width="1600" height="900" fill="#4EB058"/>
<rect width="1600" height="900" fill="url(#paint0_linear)"/>
<path d="M519.123 512.494C535.94 550.232 793.104 611.702 549.907 585.152C503.179 585.152 321.784 638.66 314.011 600.921C304.296 553.746 373.28 490.602 444.633 457.596C515.985 424.591 502.306 474.757 519.123 512.494Z" fill="#808080"/>
<path d="M456.503 415.53C441.491 405.559 445.521 414.335 385.293 449.615C364.985 454.199 322.937 468.372 317.217 488.388C310.067 513.407 334.394 521.328 372.916 532.004C411.439 542.68 425.783 500.698 464.001 454.971C502.22 409.244 471.516 425.501 456.503 415.53Z" fill="#C4C4C4"/>
<path d="M480.916 498.718C469.614 485.818 455.349 494.688 306.958 509.574C299.712 523.442 287.126 554.656 294.748 568.568C304.276 585.957 382.539 565.993 461.692 538.427C540.844 510.86 492.219 511.619 480.916 498.718Z" fill="#ACACAC"/>
<path d="M703.673 529.387C707.806 549.209 678.774 553.944 625.557 563.848C614.002 568.075 590.986 571.786 591.366 552.814C591.842 529.099 633.382 505.076 672.704 495.841C712.025 486.606 699.541 509.564 703.673 529.387Z" fill="#808080"/>
<path d="M632.129 548.679C646.074 553.309 640.065 548.703 668.044 525.774C680.195 522.074 703.613 511.832 700.079 500.466C695.662 486.26 676.124 483.298 645.879 479.638C615.633 475.977 621.445 499.95 612.361 527.368C603.278 554.785 618.183 544.049 632.129 548.679Z" fill="#C4C4C4"/>
<path d="M661.099 466.945C655.852 473.134 660.997 479.189 678.316 547.576C685.309 549.999 700.791 553.709 706.768 549.172C714.239 543.501 699.438 508.278 681.018 473.169C662.598 438.061 666.346 460.757 661.099 466.945Z" fill="#ACACAC"/>
<path d="M1174.56 634.837C1204.76 662.896 1014.85 643.006 666.946 608.053C591.723 603.019 493.128 574.097 440.738 564.184C350.772 547.162 709.257 542.646 966.029 566.113C1222.8 589.58 1144.37 606.779 1174.56 634.837Z" fill="#808080"/>
<path d="M771.546 595.583C833.968 610.47 805.274 601.065 908.369 594.029C957.443 598.141 1049.88 602.504 1027.06 587.057C998.533 567.749 913.505 550.93 782.507 525.952C651.51 500.973 692.674 532.427 672.928 557.588C653.183 582.75 709.124 580.696 771.546 595.583Z" fill="#ACACAC"/>
<path d="M1011.39 585.822C986.699 585.687 998.069 588.201 985.488 606.096C1007.1 608.372 1056.69 613.086 1082.15 613.734C1113.99 614.542 1100.14 603.812 1073.66 592.172C1047.17 580.532 1036.08 585.957 1011.39 585.822Z" fill="#C4C4C4"/>
<path d="M677.655 292.542C625.857 299.216 538.426 272.787 543.352 331.346C545.3 354.5 617.75 357.811 693.684 356.055C788.603 353.86 914.388 350.226 1005.15 324.058C1095.92 297.889 1054.14 258.549 967.611 258.88C881.085 259.21 729.453 285.867 677.655 292.542Z" fill="#5B502D"/>
<path d="M159.78 64.7209C138.746 48.5406 90.2052 27.5064 69.1709 0H0V900H174.342C177.578 830.425 161.65 836.276 174.342 812.247C201.061 761.664 210.535 765.277 229.355 760.47C366.887 775.032 382.775 766.503 408.956 752.38C431.281 740.336 432.82 728.999 423.518 703.839C413.217 675.98 407.337 677.951 379.831 645.591C352.325 613.23 316.728 595.432 332.909 554.981C349.089 514.531 370.211 470.361 379.831 461.136C389.452 451.911 391.486 441.415 423.518 448.192C480.878 460.328 489.857 482.17 506.037 499.969C522.217 517.767 527.625 547.784 548.105 554.981C567.649 561.849 575.127 562.196 585.32 554.981C595.513 547.766 625.531 502.746 645.187 499.969C670.264 496.426 679.165 491.879 698.581 532.329C717.998 572.78 762.814 592.398 808.607 588.96C830.552 587.312 847.084 576.696 883.036 592.398C918.987 608.099 946.107 572.981 965.555 572.981C985.002 572.981 1026.32 588.96 1044.84 588.96C1072.34 588.96 1103.09 579.252 1127.36 600.286C1151.63 621.32 1211.49 629.41 1253.56 658.535C1295.63 687.659 1311.81 703.839 1340.94 703.839C1370.06 703.839 1414.21 735.709 1431.54 752.38C1446.86 767.103 1455.28 854.156 1455.82 900H1600V0H1303.72C1272.98 30.2031 1209.88 108.731 1203.4 155.33C1195.31 213.579 1205.02 192.545 1182.37 226.523C1159.72 260.501 1159.72 237.849 1088.52 252.411C1017.33 266.974 1018.95 304.188 1009.24 315.514C999.533 326.84 967.173 336.548 934.812 336.548C902.452 336.548 887.89 325.222 829.641 325.222C771.392 325.222 784.336 315.514 716.379 325.222C648.423 334.93 588.556 321.986 569.14 325.222C549.723 328.458 491.475 326.84 463.968 304.188C447.972 291.015 370.798 300.854 363.651 289.626C352.223 271.673 332.908 226.523 329.672 192.545C326.436 158.566 271.376 100.087 247.153 105.171C229.739 108.826 229.114 108.8 200.641 105.171C173.246 93.0871 176.608 77.665 159.78 64.7209Z" fill="#63B3FF"/>
<path d="M159.78 64.7209C138.746 48.5406 90.2052 27.5064 69.1709 0H0V900H174.342C177.578 830.425 161.65 836.276 174.342 812.247C201.061 761.664 210.535 765.277 229.355 760.47C366.887 775.032 382.775 766.503 408.956 752.38C431.281 740.336 432.82 728.999 423.518 703.839C413.217 675.98 407.337 677.951 379.831 645.591C352.325 613.23 316.728 595.432 332.909 554.981C349.089 514.531 370.211 470.361 379.831 461.136C389.452 451.911 391.486 441.415 423.518 448.192C480.878 460.328 489.857 482.17 506.037 499.969C522.217 517.767 527.625 547.784 548.105 554.981C567.649 561.849 575.127 562.196 585.32 554.981C595.513 547.766 625.531 502.746 645.187 499.969C670.264 496.426 679.165 491.879 698.581 532.329C717.998 572.78 762.814 592.398 808.607 588.96C830.552 587.312 847.084 576.696 883.036 592.398C918.987 608.099 946.107 572.981 965.555 572.981C985.002 572.981 1026.32 588.96 1044.84 588.96C1072.34 588.96 1103.09 579.252 1127.36 600.286C1151.63 621.32 1211.49 629.41 1253.56 658.535C1295.63 687.659 1311.81 703.839 1340.94 703.839C1370.06 703.839 1414.21 735.709 1431.54 752.38C1446.86 767.103 1455.28 854.156 1455.82 900H1600V0H1303.72C1272.98 30.2031 1209.88 108.731 1203.4 155.33C1195.31 213.579 1205.02 192.545 1182.37 226.523C1159.72 260.501 1159.72 237.849 1088.52 252.411C1017.33 266.974 1018.95 304.188 1009.24 315.514C999.533 326.84 967.173 336.548 934.812 336.548C902.452 336.548 887.89 325.222 829.641 325.222C771.392 325.222 784.336 315.514 716.379 325.222C648.423 334.93 588.556 321.986 569.14 325.222C549.723 328.458 491.475 326.84 463.968 304.188C447.972 291.015 370.798 300.854 363.651 289.626C352.223 271.673 332.908 226.523 329.672 192.545C326.436 158.566 271.376 100.087 247.153 105.171C229.739 108.826 229.114 108.8 200.641 105.171C173.246 93.0871 176.608 77.665 159.78 64.7209Z" fill="url(#paint1_linear)"/>
</g>
</g>
<defs>
<linearGradient id="paint0_linear" x1="103.314" y1="189.709" x2="1160.98" y2="488.221" gradientUnits="userSpaceOnUse">
<stop stop-color="white" stop-opacity="0"/>
<stop offset="0.637213" stop-color="#515151" stop-opacity="0.0929688"/>
<stop offset="1" stop-opacity="0.04"/>
</linearGradient>
<linearGradient id="paint1_linear" x1="85.6371" y1="237.512" x2="1217.24" y2="410.094" gradientUnits="userSpaceOnUse">
<stop stop-color="white" stop-opacity="0"/>
<stop offset="1" stop-color="white" stop-opacity="0.49"/>
</linearGradient>
<clipPath id="clip0">
<rect width="1600" height="900" fill="white"/>
</clipPath>
</defs>
</svg>
