<svg width="1600" height="900" viewBox="0 0 1600 900" fill="none" xmlns="http://www.w3.org/2000/svg">
<rect width="1600" height="900" fill="white"/>
<rect width="1600" height="900" fill="#4EB058"/>
<rect width="1600" height="900" fill="url(#paint0_linear)"/>
<path d="M35.8079 597.072C28.7004 592.86 7.87829 594.053 0 594.053V554.808C17.8977 544.173 55.3738 544.968 75.7244 544.241C80.0794 544.086 83.1014 540.149 87.4646 539.713C92.1332 539.246 96.2319 538.204 101.05 538.204C114.426 538.204 128.844 534.288 141.05 539.713C144.515 541.253 146.33 544.698 150.023 546.422C155.838 549.135 165.394 549.05 171.323 547.26C178.847 544.989 187.386 538.871 193.881 533.675C196.69 531.428 203.388 530.129 207.047 528.811C214.412 526.16 220.203 522.225 227.676 520.09C234.357 518.181 242.747 515.322 248.976 512.207C256.617 508.387 262.322 500.6 269.354 496.694C273.362 494.467 275.862 492.258 279.39 488.73C284.752 483.369 292.084 481.031 297.625 475.789C300.363 473.199 304.148 472.205 307.037 469.841C312.382 ***REMOVED***.469 316.734 459.964 321.743 455.233C332.125 445.428 340.372 433.814 352.528 425.919C360.84 420.52 369.333 415.224 378.509 411.376L379.072 411.14C384.294 408.949 389.157 406.909 394.686 405.526C400.899 403.973 407.135 402.817 413.444 401.67C419.948 400.488 425.84 397.998 431.858 395.456L432.464 395.199C440.59 391.769 447.474 389.068 456.419 388.173C458.704 387.945 463.282 387.258 467.847 387.258H496.526C503.775 387.258 510.515 388.016 517.659 388.768C520.61 389.078 523.076 391.787 526.715 391.787H545.5C553.628 391.787 552.882 386.041 555.73 379.711C560.036 370.142 553.885 357.355 553.885 347.174C553.885 337.105 556.706 334.597 562.607 326.88C565.867 322.617 576.78 314.205 582.565 313.379C588.308 312.558 593.248 309.948 598.414 313.966C605.786 319.7 594.312 327.374 588.938 329.564C582.867 332.037 582.565 338.252 582.565 343.82C582.565 353.844 585.284 355.997 596.15 356.985C612.934 358.511 628.871 360.088 645.962 360.088C655.993 360.088 661.018 361.469 667.849 354.637C671.859 350.627 671.623 341.213 671.623 335.937C671.623 322.77 662.898 314.456 659.547 302.729C658.239 298.151 650.131 289.141 658.876 287.551C664.235 286.576 675.158 282.028 680.68 284.951C684.922 287.197 688.018 295.898 689.401 300.045C693.51 312.373 694.128 319.383 709.946 320.758C719.244 321.567 727.874 316.775 736.865 315.14C742.99 314.026 749.603 314.949 755.817 314.805C762.404 314.651 767.36 312.971 774.266 314.05L774.428 314.075C782.3 315.305 791.265 316.706 797.662 321.681C807.204 329.102 815.58 331.409 828.27 331.409C846.547 331.409 858.177 313.036 873.051 305.245C885.915 298.507 898.714 290.653 913.471 290.653C923.619 290.653 931.957 292.571 938.041 283.106C941.531 277.678 947.26 271.983 952.046 267.676C962.04 258.681 989.218 276.555 993.136 285.37C997.707 295.655 1010.17 291.273 1017.87 287.718C1025.54 284.182 1030.47 276.38 1033.56 268.347C1035.55 263.156 1048.47 261.747 1053.18 258.955C1060.65 254.529 1075.69 256.612 1083.7 256.271C1091.14 255.955 1114.26 250.937 1119.26 259.123C1124.52 267.737 1128.36 277.034 1134.69 284.951C1137.22 288.109 1135.02 301.697 1135.02 305.58C1135.02 316.933 1132.46 331.12 1135.86 341.807C1139.4 352.92 1147.69 353.388 1157 357.908C1166.7 362.621 1176.52 358.959 1181.48 349.522C1182.95 346.729 1183.33 344.767 1183.33 341.639C1183.33 332.332 1183.99 344.38 1185.59 347.929C1190.05 357.842 1194.97 368.716 1202.87 376.608C1208.36 382.104 1213.15 388.235 1218.63 393.715C1226.77 401.855 1243.93 401.027 1254.77 400.843C1262.94 400.705 1268.47 380.798 1271.55 373.757C1272.53 371.499 1273.48 366.601 1276.41 366.21C1287.56 364.723 1299.69 366.126 1310.96 366.126C1321.65 366.126 1337.36 367.615 1346.01 374.344C1351.56 378.657 1363.12 389.067 1371.42 383.317C1379.95 377.415 1385.51 370.795 1381.74 360.004C1378.62 351.114 1372.94 345.88 1366.89 339.04C1364.27 336.076 1360.17 331.148 1359.93 326.88C1359.58 320.501 1359.93 313.982 1359.93 307.593C1359.93 302.029 1364.46 299.126 1364.46 294.427V294.015C1364.46 286.062 1364.45 265.026 1371.42 260.38C1387 249.997 1379.56 225.988 1379.56 210.652C1379.56 198.497 1387.57 187.329 1393.48 177.109C1396.55 171.787 1396.04 169.369 1401.86 167.214C1407.47 165.138 1410.72 159.315 1415.11 155.725C1425.62 147.126 1441.43 144.071 1454.44 141.972C1475.93 138.507 1494.7 131.184 1515.07 124.613C1541.62 116.05 1572.15 117.066 1600 117.066V192.539C1594.07 192.539 1575.83 195.557 1569.75 195.557C1557.72 195.557 1549.1 204.852 1538.05 207.969C1530.21 210.181 1521.33 209.143 1513.23 209.143C1503.8 209.143 1497.37 205.661 1488.24 203.44C1463.06 197.315 1444.46 222.873 1444.46 245.369C1444.46 260.652 1446.5 274.174 1450.84 288.808C1454.63 301.63 1457.25 314.927 1462.91 326.88C1467.85 337.303 1468.88 349.751 1474.32 360.088C1476.86 364.923 1477.54 369.183 1481.36 373.002C1483.98 375.623 1482.2 385.183 1482.2 388.767C1482.2 395.814 1481.35 401.823 1478.51 408.306C1475.71 414.708 1470.5 412.919 1464.09 412.919C1451.23 412.919 1438.66 414.447 1427.86 408.726C1418.87 403.969 1415.99 403.784 1408.99 409.229C1403.85 413.225 1401.36 418.721 1397.33 423.149C1389.92 431.301 1375.28 438.117 1365.3 443.108C1357.17 447.175 1347.51 450.5 1338.8 452.919C1329.69 455.449 1321.02 459.857 1311.63 462.395C1295.08 466.867 1278.39 476.273 1263.33 484.198C1259.5 486.212 1256.98 492.236 1253.43 494.261C1250.31 496.048 1242.7 500.728 1242.2 504.995C1241.23 513.228 1232.44 520.656 1230.2 528.476C1227.44 538.163 1218.72 545.144 1211.25 550.95C1207.94 553.529 1200.8 558.559 1196.91 559.336C1192.25 560.268 1187.58 563.022 1183.33 565.038C1181.16 566.064 1178.74 564.905 1176.53 566.128C1169.4 570.092 1159.48 568.474 1151.96 571.076C1147.01 572.791 1142.93 577.449 1137.29 577.449C1132.02 577.449 1125.09 580.985 1119.93 582.313C1113.32 584.014 1107.75 588.161 1101.23 589.609C1090.39 592.018 1080.57 603.005 1070.87 608.393C1064.89 611.714 1057.51 619.119 1052.34 623.907C1046.5 629.315 1031.87 633.693 1024.08 634.892C1011.96 636.757 1000.6 639.337 987.853 639.337C977.791 639.337 970.833 643.858 966.302 652.922C964.321 656.883 962.898 661.978 957.664 661.978C950.604 661.978 953.891 668.794 953.891 672.545C953.891 676.524 958.256 681.95 959.928 686.13C961.198 689.303 974.927 688.068 977.706 685.794C985.815 679.16 991.558 666.507 1003.7 666.507C1013.61 666.507 1023.49 670.277 1018.46 681.601C1012.5 695.006 1002.09 706.222 988.608 712.964C979.564 717.486 975.814 729.113 968.985 735.942C961.456 743.471 949.375 744.998 939.467 744.998C932.093 744.998 934.268 740.006 934.268 733.677C934.268 729.155 933.832 725.738 932.674 721.686C930.137 712.807 925.151 703.832 920.169 694.866L919.928 694.432C917.58 690.206 915.123 683.493 911.29 680.427C907.964 677.766 902.419 680.288 899.466 677.828C896.482 675.341 886.701 677.073 882.946 677.073C876.062 677.073 870.025 680.092 863.323 680.092C847.078 680.092 832.631 681.126 817.285 684.536C814.782 685.093 811.834 684.648 809.486 683.865C802.486 681.532 793.147 683.111 785.838 683.111C782.233 683.111 770.487 683.885 769.653 686.8C768.919 689.372 759.518 688.81 757.326 689.484C751.665 691.226 751.841 696.647 747.934 700.553C741.41 707.078 734.131 712.515 723.699 710.197C718.831 709.115 709.9 706.706 704.831 709.107C699.763 711.507 692.755 710.564 692.755 717.073C692.755 726.989 694.265 736.919 694.265 747.262C694.265 759.248 674.537 755.564 666.34 755.564C650.81 755.564 630.479 748.014 618.708 738.206C609.086 730.187 590.418 731.062 578.792 728.478C567.835 726.043 557.51 728.203 550.028 718.583C543.044 709.603 538.897 700.362 531.998 692.084C525.713 684.541 517.408 667.737 507.847 663.488C503.348 661.488 498.922 657.204 494.681 654.431C486.914 649.353 479.388 642.413 472.711 635.982C466.869 630.357 459.233 627.704 453.507 621.978C450.058 618.529 439.877 613.857 434.974 613.676C426.857 613.375 419.753 613.884 414.261 608.393C411.225 605.357 402.064 594.411 401.431 591.034C401.079 589.16 393.273 583.935 391.619 582.648C389.192 580.76 387.046 578.696 384.24 577.449C381.15 576.076 377.526 576.016 374.261 574.43C368.765 571.761 366.361 564.912 360.592 563.109C354.227 561.12 349.611 563.556 344.072 563.864C339.176 564.136 333.322 566.891 328.977 569.063C323.059 572.022 316.124 571.874 310.528 575.604C307.339 577.73 300.308 577.449 296.356 577.449C289.414 577.449 283.11 578.958 276.146 578.958C267.174 578.958 252.569 579.314 247.131 588.015C245.377 590.823 240.23 593.743 237.655 596.317C234.506 599.466 231.218 602.038 227.173 603.194C223.978 604.106 218.334 606.878 215.433 608.812C209.408 612.829 194.609 607.686 190.862 614.431C186.36 622.535 183.345 631.685 180.967 640.007C178.732 647.831 171.861 655.96 165.202 661.14C156.637 667.801 142.565 664.997 132.077 664.997C120.559 664.997 108.142 653.976 100.295 646.129C91.9674 637.801 84.9931 629.081 77.7442 620.016L76.8985 618.959C69.4758 609.681 60.9789 608.405 50.567 604.619C46.367 603.092 40.0478 599.584 35.8079 597.072Z" fill="#63B3FF"/>
<path d="M35.8079 597.072C28.7004 592.86 7.87829 594.053 0 594.053V554.808C17.8977 544.173 55.3738 544.968 75.7244 544.241C80.0794 544.086 83.1014 540.149 87.4646 539.713C92.1332 539.246 96.2319 538.204 101.05 538.204C114.426 538.204 128.844 534.288 141.05 539.713C144.515 541.253 146.33 544.698 150.023 546.422C155.838 549.135 165.394 549.05 171.323 547.26C178.847 544.989 187.386 538.871 193.881 533.675C196.69 531.428 203.388 530.129 207.047 528.811C214.412 526.16 220.203 522.225 227.676 520.09C234.357 518.181 242.747 515.322 248.976 512.207C256.617 508.387 262.322 500.6 269.354 496.694C273.362 494.467 275.862 492.258 279.39 488.73C284.752 483.369 292.084 481.031 297.625 475.789C300.363 473.199 304.148 472.205 307.037 469.841C312.382 ***REMOVED***.469 316.734 459.964 321.743 455.233C332.125 445.428 340.372 433.814 352.528 425.919C360.84 420.52 369.333 415.224 378.509 411.376L379.072 411.14C384.294 408.949 389.157 406.909 394.686 405.526C400.899 403.973 407.135 402.817 413.444 401.67C419.948 400.488 425.84 397.998 431.858 395.456L432.464 395.199C440.59 391.769 447.474 389.068 456.419 388.173C458.704 387.945 463.282 387.258 467.847 387.258H496.526C503.775 387.258 510.515 388.016 517.659 388.768C520.61 389.078 523.076 391.787 526.715 391.787H545.5C553.628 391.787 552.882 386.041 555.73 379.711C560.036 370.142 553.885 357.355 553.885 347.174C553.885 337.105 556.706 334.597 562.607 326.88C565.867 322.617 576.78 314.205 582.565 313.379C588.308 312.558 593.248 309.948 598.414 313.966C605.786 319.7 594.312 327.374 588.938 329.564C582.867 332.037 582.565 338.252 582.565 343.82C582.565 353.844 585.284 355.997 596.15 356.985C612.934 358.511 628.871 360.088 645.962 360.088C655.993 360.088 661.018 361.469 667.849 354.637C671.859 350.627 671.623 341.213 671.623 335.937C671.623 322.77 662.898 314.456 659.547 302.729C658.239 298.151 650.131 289.141 658.876 287.551C664.235 286.576 675.158 282.028 680.68 284.951C684.922 287.197 688.018 295.898 689.401 300.045C693.51 312.373 694.128 319.383 709.946 320.758C719.244 321.567 727.874 316.775 736.865 315.14C742.99 314.026 749.603 314.949 755.817 314.805C762.404 314.651 767.36 312.971 774.266 314.05L774.428 314.075C782.3 315.305 791.265 316.706 797.662 321.681C807.204 329.102 815.58 331.409 828.27 331.409C846.547 331.409 858.177 313.036 873.051 305.245C885.915 298.507 898.714 290.653 913.471 290.653C923.619 290.653 931.957 292.571 938.041 283.106C941.531 277.678 947.26 271.983 952.046 267.676C962.04 258.681 989.218 276.555 993.136 285.37C997.707 295.655 1010.17 291.273 1017.87 287.718C1025.54 284.182 1030.47 276.38 1033.56 268.347C1035.55 263.156 1048.47 261.747 1053.18 258.955C1060.65 254.529 1075.69 256.612 1083.7 256.271C1091.14 255.955 1114.26 250.937 1119.26 259.123C1124.52 267.737 1128.36 277.034 1134.69 284.951C1137.22 288.109 1135.02 301.697 1135.02 305.58C1135.02 316.933 1132.46 331.12 1135.86 341.807C1139.4 352.92 1147.69 353.388 1157 357.908C1166.7 362.621 1176.52 358.959 1181.48 349.522C1182.95 346.729 1183.33 344.767 1183.33 341.639C1183.33 332.332 1183.99 344.38 1185.59 347.929C1190.05 357.842 1194.97 368.716 1202.87 376.608C1208.36 382.104 1213.15 388.235 1218.63 393.715C1226.77 401.855 1243.93 401.027 1254.77 400.843C1262.94 400.705 1268.47 380.798 1271.55 373.757C1272.53 371.499 1273.48 366.601 1276.41 366.21C1287.56 364.723 1299.69 366.126 1310.96 366.126C1321.65 366.126 1337.36 367.615 1346.01 374.344C1351.56 378.657 1363.12 389.067 1371.42 383.317C1379.95 377.415 1385.51 370.795 1381.74 360.004C1378.62 351.114 1372.94 345.88 1366.89 339.04C1364.27 336.076 1360.17 331.148 1359.93 326.88C1359.58 320.501 1359.93 313.982 1359.93 307.593C1359.93 302.029 1364.46 299.126 1364.46 294.427V294.015C1364.46 286.062 1364.45 265.026 1371.42 260.38C1387 249.997 1379.56 225.988 1379.56 210.652C1379.56 198.497 1387.57 187.329 1393.48 177.109C1396.55 171.787 1396.04 169.369 1401.86 167.214C1407.47 165.138 1410.72 159.315 1415.11 155.725C1425.62 147.126 1441.43 144.071 1454.44 141.972C1475.93 138.507 1494.7 131.184 1515.07 124.613C1541.62 116.05 1572.15 117.066 1600 117.066V192.539C1594.07 192.539 1575.83 195.557 1569.75 195.557C1557.72 195.557 1549.1 204.852 1538.05 207.969C1530.21 210.181 1521.33 209.143 1513.23 209.143C1503.8 209.143 1497.37 205.661 1488.24 203.44C1463.06 197.315 1444.46 222.873 1444.46 245.369C1444.46 260.652 1446.5 274.174 1450.84 288.808C1454.63 301.63 1457.25 314.927 1462.91 326.88C1467.85 337.303 1468.88 349.751 1474.32 360.088C1476.86 364.923 1477.54 369.183 1481.36 373.002C1483.98 375.623 1482.2 385.183 1482.2 388.767C1482.2 395.814 1481.35 401.823 1478.51 408.306C1475.71 414.708 1470.5 412.919 1464.09 412.919C1451.23 412.919 1438.66 414.447 1427.86 408.726C1418.87 403.969 1415.99 403.784 1408.99 409.229C1403.85 413.225 1401.36 418.721 1397.33 423.149C1389.92 431.301 1375.28 438.117 1365.3 443.108C1357.17 447.175 1347.51 450.5 1338.8 452.919C1329.69 455.449 1321.02 459.857 1311.63 462.395C1295.08 466.867 1278.39 476.273 1263.33 484.198C1259.5 486.212 1256.98 492.236 1253.43 494.261C1250.31 496.048 1242.7 500.728 1242.2 504.995C1241.23 513.228 1232.44 520.656 1230.2 528.476C1227.44 538.163 1218.72 545.144 1211.25 550.95C1207.94 553.529 1200.8 558.559 1196.91 559.336C1192.25 560.268 1187.58 563.022 1183.33 565.038C1181.16 566.064 1178.74 564.905 1176.53 566.128C1169.4 570.092 1159.48 568.474 1151.96 571.076C1147.01 572.791 1142.93 577.449 1137.29 577.449C1132.02 577.449 1125.09 580.985 1119.93 582.313C1113.32 584.014 1107.75 588.161 1101.23 589.609C1090.39 592.018 1080.57 603.005 1070.87 608.393C1064.89 611.714 1057.51 619.119 1052.34 623.907C1046.5 629.315 1031.87 633.693 1024.08 634.892C1011.96 636.757 1000.6 639.337 987.853 639.337C977.791 639.337 970.833 643.858 966.302 652.922C964.321 656.883 962.898 661.978 957.664 661.978C950.604 661.978 953.891 668.794 953.891 672.545C953.891 676.524 958.256 681.95 959.928 686.13C961.198 689.303 974.927 688.068 977.706 685.794C985.815 679.16 991.558 666.507 1003.7 666.507C1013.61 666.507 1023.49 670.277 1018.46 681.601C1012.5 695.006 1002.09 706.222 988.608 712.964C979.564 717.486 975.814 729.113 968.985 735.942C961.456 743.471 949.375 744.998 939.467 744.998C932.093 744.998 934.268 740.006 934.268 733.677C934.268 729.155 933.832 725.738 932.674 721.686C930.137 712.807 925.151 703.832 920.169 694.866L919.928 694.432C917.58 690.206 915.123 683.493 911.29 680.427C907.964 677.766 902.419 680.288 899.466 677.828C896.482 675.341 886.701 677.073 882.946 677.073C876.062 677.073 870.025 680.092 863.323 680.092C847.078 680.092 832.631 681.126 817.285 684.536C814.782 685.093 811.834 684.648 809.486 683.865C802.486 681.532 793.147 683.111 785.838 683.111C782.233 683.111 770.487 683.885 769.653 686.8C768.919 689.372 759.518 688.81 757.326 689.484C751.665 691.226 751.841 696.647 747.934 700.553C741.41 707.078 734.131 712.515 723.699 710.197C718.831 709.115 709.9 706.706 704.831 709.107C699.763 711.507 692.755 710.564 692.755 717.073C692.755 726.989 694.265 736.919 694.265 747.262C694.265 759.248 674.537 755.564 666.34 755.564C650.81 755.564 630.479 748.014 618.708 738.206C609.086 730.187 590.418 731.062 578.792 728.478C567.835 726.043 557.51 728.203 550.028 718.583C543.044 709.603 538.897 700.362 531.998 692.084C525.713 684.541 517.408 667.737 507.847 663.488C503.348 661.488 498.922 657.204 494.681 654.431C486.914 649.353 479.388 642.413 472.711 635.982C466.869 630.357 459.233 627.704 453.507 621.978C450.058 618.529 439.877 613.857 434.974 613.676C426.857 613.375 419.753 613.884 414.261 608.393C411.225 605.357 402.064 594.411 401.431 591.034C401.079 589.16 393.273 583.935 391.619 582.648C389.192 580.76 387.046 578.696 384.24 577.449C381.15 576.076 377.526 576.016 374.261 574.43C368.765 571.761 366.361 564.912 360.592 563.109C354.227 561.12 349.611 563.556 344.072 563.864C339.176 564.136 333.322 566.891 328.977 569.063C323.059 572.022 316.124 571.874 310.528 575.604C307.339 577.73 300.308 577.449 296.356 577.449C289.414 577.449 283.11 578.958 276.146 578.958C267.174 578.958 252.569 579.314 247.131 588.015C245.377 590.823 240.23 593.743 237.655 596.317C234.506 599.466 231.218 602.038 227.173 603.194C223.978 604.106 218.334 606.878 215.433 608.812C209.408 612.829 194.609 607.686 190.862 614.431C186.36 622.535 183.345 631.685 180.967 640.007C178.732 647.831 171.861 655.96 165.202 661.14C156.637 667.801 142.565 664.997 132.077 664.997C120.559 664.997 108.142 653.976 100.295 646.129C91.9674 637.801 84.9931 629.081 77.7442 620.016L76.8985 618.959C69.4758 609.681 60.9789 608.405 50.567 604.619C46.367 603.092 40.0478 599.584 35.8079 597.072Z" fill="url(#paint1_linear)"/>
<path d="M540.636 434.051C544.77 419.993 548.414 421.046 558.138 423.44C572.117 426.881 577.009 420.177 583.152 417.447C585.602 416.358 587.632 414.058 589.441 412.248C592.002 409.688 597.209 408.854 600.343 406.881C611.158 400.071 620.283 399.334 633.132 399.334C642.355 399.334 652.604 393.392 661.895 391.703C673.015 389.681 682.819 388.768 694.264 388.768C704.011 388.768 709.469 395.014 719.59 392.122C727.212 389.944 735.315 390.197 741.141 383.401C748.5 374.815 755.117 364.781 763.699 357.153C773.092 348.804 781.023 349.243 791.876 351.367C801.841 353.317 811.369 354.727 819.884 360.088C823.131 362.132 827.203 361.598 830.87 361.598C838.322 361.598 841.676 362.246 847.055 357.405C855.85 349.489 867.859 342.806 876.573 334.092C885.132 325.533 901.049 308.998 915.483 315.559C920.867 318.007 928.229 316.654 928.229 323.861C928.229 333.007 948.322 326.88 955.064 326.88C963.367 326.88 974.274 331.237 981.899 326.88C987.844 323.483 991.094 315.839 999.174 316.314C1002.68 316.52 999.286 323.303 1001.02 325.035C1003.45 327.47 1012.31 327.777 1015.61 329.06C1022.88 331.887 1033.45 331.409 1041.35 331.409C1054.3 331.409 1074.65 329.517 1074.65 346.503C1074.65 361.334 1081.45 365.221 1093.57 372.145L1093.6 372.164C1096.88 374.041 1100.22 372.959 1103.49 374.596C1107.98 376.84 1111.82 380.937 1116.91 381.22C1125.76 381.712 1133.14 390.906 1141.06 391.787C1146.66 392.408 1156.16 394.897 1156.16 401.598C1156.16 407.776 1155.29 414.528 1157.67 419.879C1160.39 425.998 1165.44 431.032 1172.76 431.032C1175.9 431.032 1195.91 434.029 1193.56 440.089C1190.36 448.321 1183.59 447.617 1179.47 452.919C1174.8 458.918 1174.53 464.75 1170.58 470.949C1168.37 474.429 1170.7 479.254 1168.99 483.025C1167.77 485.706 1166.72 489.943 1166.72 492.92C1166.72 502.358 1164.91 512.769 1158.51 520.09C1156.18 522.746 1156.48 525.266 1153.05 527.637C1150.04 529.727 1146.97 531.724 1143.91 533.759C1138.39 537.44 1131.86 539.025 1126.3 542.732C1119.24 547.444 1113.15 552.293 1105.17 555.143C1094.17 559.07 1083.09 562.142 1071.63 563.78C1067.77 564.331 1066.36 566.818 1061.9 566.883C1051.09 567.04 1042.38 567.743 1032.47 572.082C1024.01 575.783 1015.18 582.915 1006.72 585.332C1001.86 586.721 996.839 588.535 992.***REMOVED*** 591.034C986.506 594.44 978.919 593.007 972.675 595.898C960.057 601.739 948.415 606.53 937.286 615.186C933.749 617.937 929.151 618.793 925.965 621.978C923.057 624.887 922.21 629.123 919.508 632.125C912.124 640.329 910.449 649.354 899.55 653.593C892.313 656.407 885.455 655.941 877.579 655.941C870.719 655.941 858.085 658.346 851.918 655.605C845.913 652.936 836.882 648.394 830.115 648.394C812.372 648.394 795.571 654.144 777.284 652.838C771.881 652.452 767.067 649.217 761.519 648.477C757.577 647.952 753.334 647.413 749.443 646.549C741.698 644.828 732.803 643.865 725.124 643.865C713.355 643.865 701.617 644.349 690.91 648.394C678.703 653.005 664.348 648.661 652 651.748C640.687 654.576 632.001 652.922 620.301 652.922C612.609 652.922 604.769 647.124 598.33 643.027C589.768 637.578 578.595 638.257 570.405 631.706C563.565 626.233 559.337 617.873 552.711 612.838C548.493 609.632 544.936 607.383 541.977 602.523C538.31 596.498 531.997 595.646 527.051 590.699C523.277 586.926 522.403 582.316 516.149 581.978C508.386 581.558 504.381 577.353 497.7 574.43C485.947 569.289 472.321 570.092 ***REMOVED***.163 558.162C460.495 550.382 458.111 542.911 458.874 533.759C459.844 522.117 461.928 507.873 470.53 500.132C476.632 494.64 482.031 489.234 486.295 482.018C492.509 471.504 496.785 463.284 506.337 455.854C512.54 451.03 513.165 440.426 522.858 438.664C530.786 437.222 537.68 444.102 540.636 434.051Z" fill="#4EB058"/>
<path d="M540.636 434.051C544.77 419.993 548.414 421.046 558.138 423.44C572.117 426.881 577.009 420.177 583.152 417.447C585.602 416.358 587.632 414.058 589.441 412.248C592.002 409.688 597.209 408.854 600.343 406.881C611.158 400.071 620.283 399.334 633.132 399.334C642.355 399.334 652.604 393.392 661.895 391.703C673.015 389.681 682.819 388.768 694.264 388.768C704.011 388.768 709.469 395.014 719.59 392.122C727.212 389.944 735.315 390.197 741.141 383.401C748.5 374.815 755.117 364.781 763.699 357.153C773.092 348.804 781.023 349.243 791.876 351.367C801.841 353.317 811.369 354.727 819.884 360.088C823.131 362.132 827.203 361.598 830.87 361.598C838.322 361.598 841.676 362.246 847.055 357.405C855.85 349.489 867.859 342.806 876.573 334.092C885.132 325.533 901.049 308.998 915.483 315.559C920.867 318.007 928.229 316.654 928.229 323.861C928.229 333.007 948.322 326.88 955.064 326.88C963.367 326.88 974.274 331.237 981.899 326.88C987.844 323.483 991.094 315.839 999.174 316.314C1002.68 316.52 999.286 323.303 1001.02 325.035C1003.45 327.47 1012.31 327.777 1015.61 329.06C1022.88 331.887 1033.45 331.409 1041.35 331.409C1054.3 331.409 1074.65 329.517 1074.65 346.503C1074.65 361.334 1081.45 365.221 1093.57 372.145L1093.6 372.164C1096.88 374.041 1100.22 372.959 1103.49 374.596C1107.98 376.84 1111.82 380.937 1116.91 381.22C1125.76 381.712 1133.14 390.906 1141.06 391.787C1146.66 392.408 1156.16 394.897 1156.16 401.598C1156.16 407.776 1155.29 414.528 1157.67 419.879C1160.39 425.998 1165.44 431.032 1172.76 431.032C1175.9 431.032 1195.91 434.029 1193.56 440.089C1190.36 448.321 1183.59 447.617 1179.47 452.919C1174.8 458.918 1174.53 464.75 1170.58 470.949C1168.37 474.429 1170.7 479.254 1168.99 483.025C1167.77 485.706 1166.72 489.943 1166.72 492.92C1166.72 502.358 1164.91 512.769 1158.51 520.09C1156.18 522.746 1156.48 525.266 1153.05 527.637C1150.04 529.727 1146.97 531.724 1143.91 533.759C1138.39 537.44 1131.86 539.025 1126.3 542.732C1119.24 547.444 1113.15 552.293 1105.17 555.143C1094.17 559.07 1083.09 562.142 1071.63 563.78C1067.77 564.331 1066.36 566.818 1061.9 566.883C1051.09 567.04 1042.38 567.743 1032.47 572.082C1024.01 575.783 1015.18 582.915 1006.72 585.332C1001.86 586.721 996.839 588.535 992.***REMOVED*** 591.034C986.506 594.44 978.919 593.007 972.675 595.898C960.057 601.739 948.415 606.53 937.286 615.186C933.749 617.937 929.151 618.793 925.965 621.978C923.057 624.887 922.21 629.123 919.508 632.125C912.124 640.329 910.449 649.354 899.55 653.593C892.313 656.407 885.455 655.941 877.579 655.941C870.719 655.941 858.085 658.346 851.918 655.605C845.913 652.936 836.882 648.394 830.115 648.394C812.372 648.394 795.571 654.144 777.284 652.838C771.881 652.452 767.067 649.217 761.519 648.477C757.577 647.952 753.334 647.413 749.443 646.549C741.698 644.828 732.803 643.865 725.124 643.865C713.355 643.865 701.617 644.349 690.91 648.394C678.703 653.005 664.348 648.661 652 651.748C640.687 654.576 632.001 652.922 620.301 652.922C612.609 652.922 604.769 647.124 598.33 643.027C589.768 637.578 578.595 638.257 570.405 631.706C563.565 626.233 559.337 617.873 552.711 612.838C548.493 609.632 544.936 607.383 541.977 602.523C538.31 596.498 531.997 595.646 527.051 590.699C523.277 586.926 522.403 582.316 516.149 581.978C508.386 581.558 504.381 577.353 497.7 574.43C485.947 569.289 472.321 570.092 ***REMOVED***.163 558.162C460.495 550.382 458.111 542.911 458.874 533.759C459.844 522.117 461.928 507.873 470.53 500.132C476.632 494.64 482.031 489.234 486.295 482.018C492.509 471.504 496.785 463.284 506.337 455.854C512.54 451.03 513.165 440.426 522.858 438.664C530.786 437.222 537.68 444.102 540.636 434.051Z" fill="url(#paint2_linear)"/>
<defs>
<linearGradient id="paint0_linear" x1="103.314" y1="189.709" x2="1160.98" y2="488.221" gradientUnits="userSpaceOnUse">
<stop stop-color="white" stop-opacity="0"/>
<stop offset="0.637213" stop-color="#515151" stop-opacity="0.0929688"/>
<stop offset="1" stop-opacity="0.17"/>
</linearGradient>
<linearGradient id="paint1_linear" x1="85.6371" y1="285.681" x2="1192.5" y2="523.414" gradientUnits="userSpaceOnUse">
<stop stop-color="white" stop-opacity="0"/>
<stop offset="1" stop-color="white" stop-opacity="0.49"/>
</linearGradient>
<linearGradient id="paint2_linear" x1="506.194" y1="386.327" x2="976.316" y2="546.33" gradientUnits="userSpaceOnUse">
<stop stop-color="white" stop-opacity="0"/>
<stop offset="0.637213" stop-color="#515151" stop-opacity="0.0929688"/>
<stop offset="1" stop-opacity="0.17"/>
</linearGradient>
</defs>
</svg>
